HIERARCHY
ROOT RootJoint
{
    OFFSET   0.000000   0.000000   0.000000
    CHANNELS 6 Xposition Yposition Zposition Xrotation Yrotation Zrotation
    JOINT pelvis_lowerback
    {
        OFFSET   0.000000   0.093605   0.000000
        CHANNELS 3 Xrotation Yrotation Zrotation
        JOINT lowerback_torso
        {
            OFFSET   0.000000   0.100000   0.000000
            CHANNELS 3 Xrotation Yrotation Zrotation
            JOINT torso_head
            {
                OFFSET   0.000000   0.282350   0.000000
                CHANNELS 3 Xrotation Yrotation Zrotation
                End Site
                {
                    OFFSET   0.000000   0.192650   0.000000
                }
            }
            JOINT rTorso_Clavicle
            {
                OFFSET  -0.001000   0.157500   0.000000
                CHANNELS 3 Xrotation Yrotation Zrotation
                JOINT rShoulder
                {
                    OFFSET  -0.117647   0.000000   0.000000
                    CHANNELS 3 Xrotation Yrotation Zrotation
                    JOINT rElbow
                    {
                        OFFSET  -0.245000   0.000000   0.000000
                        CHANNELS 3 Xrotation Yrotation Zrotation
                        JOINT rWrist
                        {
                            OFFSET  -0.240000   0.000000   0.000000
                            CHANNELS 3 Xrotation Yrotation Zrotation
                            End Site
                            {
                                OFFSET  -0.116353  -0.002500   0.000000
                            }
                        }
                    }
                }
            }
            JOINT lTorso_Clavicle
            {
                OFFSET   0.001000   0.157500   0.000000
                CHANNELS 3 Xrotation Yrotation Zrotation
                JOINT lShoulder
                {
                    OFFSET   0.117647   0.000000   0.000000
                    CHANNELS 3 Xrotation Yrotation Zrotation
                    JOINT lElbow
                    {
                        OFFSET   0.245000   0.000000   0.000000
                        CHANNELS 3 Xrotation Yrotation Zrotation
                        JOINT lWrist
                        {
                            OFFSET   0.240000   0.000000   0.000000
                            CHANNELS 3 Xrotation Yrotation Zrotation
                            End Site
                            {
                                OFFSET   0.116353  -0.002500   0.000000
                            }
                        }
                    }
                }
            }
        }
    }
    JOINT rHip
    {
        OFFSET  -0.100000  -0.051395   0.000000
        CHANNELS 3 Xrotation Yrotation Zrotation
        JOINT rKnee
        {
            OFFSET   0.000000  -0.410000   0.000000
            CHANNELS 3 Xrotation Yrotation Zrotation
            JOINT rAnkle
            {
                OFFSET   0.000000  -0.390000   0.000000
                CHANNELS 3 Xrotation Yrotation Zrotation
                JOINT rToeJoint
                {
                    OFFSET   0.000000  -0.050000   0.130000
                    CHANNELS 3 Xrotation Yrotation Zrotation
                    End Site
                    {
                        OFFSET  -0.010000   0.002000   0.060000
                    }
                }
            }
        }
    }
    JOINT lHip
    {
        OFFSET   0.100000  -0.051395   0.000000
        CHANNELS 3 Xrotation Yrotation Zrotation
        JOINT lKnee
        {
            OFFSET   0.000000  -0.410000   0.000000
            CHANNELS 3 Xrotation Yrotation Zrotation
            JOINT lAnkle
            {
                OFFSET   0.000000  -0.390000   0.000000
                CHANNELS 3 Xrotation Yrotation Zrotation
                JOINT lToeJoint
                {
                    OFFSET   0.000000  -0.050000   0.130000
                    CHANNELS 3 Xrotation Yrotation Zrotation
                    End Site
                    {
                        OFFSET   0.010000   0.002000   0.060000
                    }
                }
            }
        }
    }
}
MOTION
Frames: 11
Frame Time:   0.008333
 -2.428839   0.207412   4.566992 -12.586454 -12.132477  -1.954652  34.550445  -2.568628  -1.489945   3.291501   3.437087  -1.016472  -2.937838   0.770127   4.132902 -13.342540   8.682391  15.496187  -8.407695   7.732746  44.433515  -0.000977  32.771112   0.001936   8.891306   8.553236 -11.210070  -5.806724  -1.838335  -7.983995   4.551371  -7.540635 -42.864593  -0.004598 -29.477627   0.005290   5.710339   1.252248   5.799790 -77.405496  11.227981  -9.368454 170.000015  -0.000001  -0.000002 -70.110679  -4.181854   9.177654 -11.049740  -0.018002   0.015282 -77.182672  -2.810219   3.747375 170.000204   0.000001   0.000002 -70.002232  -3.416515   0.104090 -16.208021   0.000120  -0.000017
 -2.429487   0.206751   4.567092 -12.612021 -11.542012  -1.814838  34.130353  -2.801784  -1.410977   3.230172   3.100072  -0.906679  -2.897817   0.885320   3.986804 -13.193627   8.856852  15.263675  -8.353984   7.461760  44.716485   0.000232  31.981643   0.000415   8.860224   8.518497 -11.472913  -5.771054  -2.161320  -7.786285   4.433823  -7.976125 -42.848207  -0.004454 -29.981230   0.005130   5.947045   1.030170   5.839625 -78.339773  10.902795  -9.111506 169.801976  -0.000976  -0.001074 -70.111393  -4.231515   9.233868 -10.315433  -0.018594   0.017323 -77.403999  -2.852073   3.514334 170.000163   0.000000   0.000001 -69.993748  -3.528009  -0.109028 -15.833637   0.000564   0.001056
 -2.430307   0.206068   4.567149 -12.660226 -10.872001  -1.694845  33.745101  -3.070173  -1.303311   3.173648   2.733521  -0.782917  -2.871086   0.990749   3.845440 -13.007002   8.975929  15.014377  -8.264925   7.161765  44.954891   0.001655  31.198471  -0.000925   8.838479   8.493310 -11.660856  -5.724483  -2.452717  -7.592342   4.333160  -8.377934 -42.840476  -0.004241 -30.455362   0.004870   6.179177   0.778208   5.851407 -79.281266  10.594956  -8.839107 169.550540  -0.002217  -0.002184 -70.112028  -4.278034   9.287215  -9.631707  -0.018552   0.019296 -77.629774  -2.896752   3.308982 170.000131   0.000000   0.000001 -69.987031  -3.627173  -0.303457 -15.406522   0.000981   0.002470
 -2.431300   0.205362   4.567164 -12.749751 -10.134362  -1.587093  33.402435  -3.367058  -1.182513   3.142528   2.348190  -0.653566  -2.849042   1.088225   3.714216 -12.791346   9.046390  14.762018  -8.149156   6.845046  45.158112   0.002975  30.438959  -0.001942   8.827903   8.470906 -11.820390  -5.677552  -2.722063  -7.406733   4.241367  -8.750960 -42.832343  -0.003990 -30.897482   0.004501   6.402247   0.533492   5.859025 -80.185790  10.307960  -8.566636 169.295662  -0.003382  -0.003063 -70.112577  -4.321483   9.337524  -9.002307  -0.018006   0.020891 -77.831915  -2.939379   3.129863 170.000104  -0.000000   0.000001 -69.981793  -3.715586  -0.484155 -14.943620   0.001356   0.004126
 -2.432454   0.204625   4.567137 -12.877905  -9.340987  -1.486591  33.099224  -3.683424  -1.055312   3.136985   1.951802  -0.523121  -2.828811   1.178652   3.592169 -12.554309   9.077225  14.513146  -8.013237   6.519288  45.334641   0.004056  29.708363  -0.002617   8.827193   8.448884 -11.969639  -5.631843  -2.972362  -7.230996   4.156619  -9.098189 -42.824085  -0.003722 -31.309760   0.004040   6.616095   0.301287   5.867304 -81.045661  10.039034  -8.300287 169.052973  -0.004351  -0.003687 -70.113057  -4.362070   9.385032  -8.425198  -0.017131   0.022013 -78.012682  -2.979921   2.975899 170.000084  -0.000000   0.000001 -69.977805  -3.793609  -0.652925 -14.447351   0.001692   0.005970
 -2.433754   0.203834   4.567048 -13.040710  -8.507347  -1.384363  32.849901  -4.015696  -0.921871   3.173402   1.546635  -0.390767  -2.821871   1.262312   3.472539 -12.256025   9.064511  14.283376  -7.819711   6.144619  45.484428   0.004759  28.916565  -0.002999   8.833109   8.441150 -11.632891  -5.588397  -3.201965  -7.064598   4.077346  -9.421952 -42.815586  -0.003421 -31.695772   0.003621   6.821313   0.070632   5.881039 -81.863702   9.787447  -8.041100 168.827963  -0.005080  -0.004095 -70.113478  -4.400013   9.429896  -7.897172  -0.016088   0.022652 -78.180889  -3.015540   2.846237 170.000067  -0.000000   0.000000 -69.974873  -3.862637  -0.813187 -13.912296   0.002000   0.007977
 -2.435169   0.203003   4.566902 -13.235309  -7.645547  -1.285122  32.633315  -4.354609  -0.785959   3.233160   1.140862  -0.257868  -2.804257   1.340769   3.363418 -11.963304   9.024040  14.068519  -7.633745   5.802182  45.640905   0.004920  28.243310  -0.003085   9.121423  10.606238 -11.714499  -5.543622  -3.416346  -6.911693   4.006271  -9.721977 -42.809895  -0.003118 -32.053780   0.003171   7.017312  -0.137733   5.890057 -82.633816   9.549995  -7.790908 168.618404  -0.005600  -0.004334 -70.113854  -4.435387   9.472318  -7.413640  -0.014944   0.022848 -78.336563  -3.049987   2.739158 170.000053  -0.000000   0.000000 -69.972847  -3.921949  -0.962726 -13.344308   0.002280   0.010049
 -2.436556   0.202020   4.566847 -13.191250  -6.753648  -1.132377  32.006954  -4.613048  -0.679538   3.371602   0.662597  -0.110600  -2.787299   1.413047   3.193623 -11.747188   8.969682  13.847964  -7.519262   5.261597  45.760062   0.005958  27.654830  -0.004502   8.954155  10.186367 -11.809030  -5.398794  -3.572802  -6.778672   3.874523  -9.889516 -42.828111  -0.003260 -32.444104   0.001967   7.152094  -0.389543   5.785427 -83.689393   9.265003  -7.596002 167.972854  -0.008963  -0.007198 -70.107778  -4.523625   9.431690  -6.725491  -0.015087   0.025076 -78.798195  -3.005012   2.585696 170.000043  -0.000000   0.000000 -69.972831  -3.916601  -1.111496 -12.662108   0.002979   0.012787
 -2.438002   0.200981   4.566808 -13.162562  -5.844985  -0.962910  31.398160  -4.859860  -0.597457   3.487333   0.200550   0.019624  -2.790163   1.479204   3.027878 -11.498496   8.879826  13.610761  -7.370177   4.695233  45.832060   0.007192  27.012138  -0.005591   8.803599   9.872012 -11.737530  -5.246595  -3.690256  -6.634941   3.765620 -10.028227 -42.837824  -0.003499 -32.805037   0.000715   7.275645  -0.629884   5.686836 -84.674969   8.992812  -7.425259 167.199420  -0.012490  -0.010405 -70.102117  -4.606240   9.393394  -6.063288  -0.015162   0.026743 -79.255246  -2.944886   2.429868 170.000034  -0.000000   0.000000 -69.973189  -3.918697  -1.259308 -11.967094   0.003596   0.015096
 -2.439117   0.200019   4.566582 -13.032349  -5.151288  -0.860536  30.756625  -5.027857  -0.490752   3.558635  -0.192212   0.121361  -2.809918   1.544743   2.864007 -11.238986   8.772458  13.360895  -7.206304   4.136444  45.867405   0.008339  26.371608  -0.006765   8.695871   9.631210 -11.573390  -5.073088  -3.754226  -6.517011   3.688040 -10.131852 -42.857661  -0.003520 -33.132486  -0.000045   7.387304  -0.823912   5.606607 -85.321664   8.620256  -7.199112 167.392104  -0.008837  -0.007180 -70.098092  -4.664771   9.368530  -5.377539  -0.014607   0.026552 -79.803633  -2.885106   2.385299 170.000027  -0.000000   0.000000 -69.974654  -3.888840  -1.389468 -11.283315   0.004197   0.016334
 -2.439989   0.199092   4.566253 -12.891706  -4.583678  -0.793794  30.150919  -5.181488  -0.388344   3.627201  -0.550110   0.219667  -2.833116   1.606040   2.712776 -10.981136   8.654507  13.111397  -7.040588   3.599975  45.889235   0.009157  25.762491  -0.007823   8.597977   9.446910 -11.388557  -4.890348  -3.787765  -6.400484   3.633209 -10.210294 -42.875022  -0.003395 -33.429819  -0.000373   7.489272  -0.966658   5.526879 -85.891761   8.311758  -6.970627 167.564377  -0.006148  -0.004916 -70.093625  -4.716827   9.328763  -4.814458  -0.013098   0.024947 -80.353080  -2.834952   2.359742 170.000022  -0.000000   0.000000 -69.976668  -3.848218  -1.512283 -10.618405   0.004642   0.016588
